<?xml version="1.0" standalone="no"?>
<!DOCTYPE svg PUBLIC "-//W3C//DTD SVG 20010904//EN"
 "http://www.w3.org/TR/2001/REC-SVG-20010904/DTD/svg10.dtd">
<svg version="1.0" xmlns="http://www.w3.org/2000/svg"
 width="172.000000pt" height="251.000000pt" viewBox="0 0 172.000000 251.000000"
 preserveAspectRatio="xMidYMid meet">

<g transform="translate(0.000000,251.000000) scale(0.100000,-0.100000)"
fill="#000000" stroke="none">
<path d="M270 2495 c0 -18 0 -18 41 0 l34 14 -37 1 c-27 0 -38 -4 -38 -15z"/>
<path d="M353 2463 l-83 -36 0 -38 c0 -22 3 -39 7 -39 4 0 47 16 95 36 l88 37
0 38 c0 25 -5 39 -12 38 -7 0 -50 -17 -95 -36z"/>
<path d="M358 2332 l-88 -36 0 -43 0 -43 53 21 c28 12 71 28 95 36 41 14 42
16 42 59 0 24 -3 44 -7 43 -5 0 -47 -17 -95 -37z"/>
<path d="M353 2196 c-46 -17 -83 -34 -83 -38 0 -5 43 -8 95 -8 l95 0 0 40 c0
26 -4 40 -12 39 -7 -1 -50 -15 -95 -33z"/>
<path d="M28 2045 l27 -65 300 0 300 0 33 59 c17 33 32 62 32 65 0 3 -162 6
-359 6 l-360 0 27 -65z"/>
<path d="M207 1923 c-4 -3 -7 -255 -7 -560 l0 -553 82 -165 c46 -91 85 -165
88 -165 3 0 38 78 78 173 l72 173 0 552 0 552 -153 0 c-85 0 -157 -3 -160 -7z
m253 -521 l0 -478 -49 -144 -48 -145 -12 40 c-12 37 -9 51 23 165 l36 124 0
458 0 458 25 0 25 0 0 -478z"/>
<path d="M590 1805 l0 -125 108 0 c267 0 368 -58 380 -219 5 -81 -8 -129 -51
-177 -59 -69 -92 -78 -274 -82 l-163 -4 0 -124 0 -124 115 0 115 0 119 -245
119 -245 162 0 161 0 -24 32 c-41 56 -236 506 -223 516 6 5 31 20 56 34 55 32
131 110 159 166 48 94 64 230 40 344 -29 137 -118 248 -249 311 -108 51 -199
67 -390 67 l-160 0 0 -125z"/>
</g>
</svg>
