<?xml version="1.0" standalone="no"?>
<!DOCTYPE svg PUBLIC "-//W3C//DTD SVG 20010904//EN"
 "http://www.w3.org/TR/2001/REC-SVG-20010904/DTD/svg10.dtd">
<svg version="1.0" xmlns="http://www.w3.org/2000/svg"
 width="621.000000pt" height="621.000000pt" viewBox="0 0 621.000000 621.000000"
 preserveAspectRatio="xMidYMid meet">

<g transform="translate(0.000000,621.000000) scale(0.100000,-0.100000)"
fill="#000000" stroke="none">
<path d="M2880 6200 c-757 -59 -1439 -371 -1969 -899 -503 -502 -808 -1141
-892 -1871 -18 -152 -15 -526 5 -689 86 -706 391 -1336 886 -1831 503 -503
1144 -808 1870 -891 135 -16 515 -16 650 0 727 83 1366 388 1870 891 503 503
808 1144 891 1870 16 135 16 515 0 650 -59 518 -224 976 -503 1395 -504 760
-1310 1254 -2217 1360 -160 19 -445 26 -591 15z m-551 -825 c-7 -7 -150 -65
-160 -65 -5 0 -9 16 -9 35 l0 35 87 0 c47 0 84 -2 82 -5z m221 -88 l0 -84 -87
-35 c-49 -20 -136 -57 -195 -82 l-108 -45 0 88 0 88 183 76 c100 41 188 76
195 76 9 1 12 -22 12 -82z m-2 -268 l-3 -91 -140 -54 c-77 -30 -164 -63 -192
-74 l-53 -20 0 88 0 87 183 77 c100 43 188 77 195 78 10 0 12 -22 10 -91z m2
-269 l0 -90 -195 0 c-179 0 -195 1 -195 18 0 13 43 34 188 89 103 40 190 72
195 73 4 0 7 -40 7 -90z m510 -170 c0 -5 -30 -66 -67 -135 l-67 -125 -587 0
-586 0 -54 126 c-30 70 -55 131 -57 135 -2 5 316 9 707 9 464 0 711 -3 711
-10z m-387 -1411 l6 -1081 -151 -361 c-83 -199 -154 -365 -158 -370 -3 -4 -81
148 -173 338 l-167 345 0 332 c0 183 3 681 7 1106 l6 772 312 0 312 0 6 -1081z
m817 1057 c284 -45 538 -173 685 -346 184 -216 255 -530 190 -839 -55 -263
-225 -480 -472 -605 -29 -14 -53 -29 -53 -31 0 -3 104 -238 231 -523 127 -284
233 -523 236 -529 4 -10 -60 -13 -299 -13 l-304 0 -229 475 -230 475 -232 0
-233 0 0 255 0 255 260 0 c199 0 279 4 338 16 242 50 372 206 372 450 0 217
-102 360 -305 430 -79 28 -84 28 -372 32 l-293 4 0 260 0 261 308 -6 c192 -4
343 -12 402 -21z"/>
<path d="M2450 3228 l0 -901 -70 -242 -69 -241 22 -75 23 -74 92 282 92 281 0
936 0 936 -45 0 -45 0 0 -902z"/>
</g>
</svg>
